<svg xmlns="http://www.w3.org/2000/svg" width="200" height="200" viewBox="0 0 200 200">
  <rect width="200" height="200" fill="#f0f0f0"/>
  <g fill="#999">
    <path d="M100 50c-27.6 0-50 22.4-50 50s22.4 50 50 50 50-22.4 50-50-22.4-50-50-50zm0 90c-22.1 0-40-17.9-40-40s17.9-40 40-40 40 17.9 40 40-17.9 40-40 40z"/>
    <circle cx="85" cy="90" r="8"/>
    <circle cx="115" cy="90" r="8"/>
    <path d="M125 115c0-13.8-11.2-25-25-25s-25 11.2-25 25h10c0-8.3 6.7-15 15-15s15 6.7 15 15h10z" transform="rotate(180 100 115)"/>
  </g>
</svg>
