<svg width="20" height="20" viewBox="0 0 20 20" fill="none" xmlns="http://www.w3.org/2000/svg">
<g clip-path="url(#clip0_3278_2822)">
<path d="M15.3882 18.2501H4.52206C4.44685 18.2501 4.3766 18.2123 4.33472 18.1497C4.29283 18.0871 4.28518 18.0074 4.31445 17.9381L9.74752 4.92732C9.78265 4.84356 9.86461 4.78906 9.95514 4.78906C10.0457 4.78906 10.1281 4.84356 10.1627 4.92732L15.5958 17.9381C15.6246 18.0074 15.617 18.0871 15.5756 18.1497C15.5337 18.2123 15.4634 18.2501 15.3882 18.2501ZM4.86028 17.7998H15.0504L9.95514 5.5988L4.85983 17.7998H4.86028Z" fill="#FF8C00"/>
<path d="M9.95371 9.10559C9.92219 9.10559 9.89112 9.09883 9.86184 9.08577L8.50042 8.47734C8.38693 8.42645 8.33604 8.2936 8.38693 8.18011C8.43782 8.06662 8.57068 8.01573 8.68462 8.06662L9.95417 8.63407L11.2237 8.06662C11.3372 8.01573 11.4705 8.06662 11.5209 8.18011C11.5718 8.2936 11.5209 8.4269 11.4075 8.47734L10.046 9.08577C10.0168 9.09883 9.98569 9.10559 9.95417 9.10559H9.95371Z" fill="#FF8C00"/>
<path d="M4.52006 18.2451H1.88144C1.80623 18.2451 1.73597 18.2073 1.69409 18.1447C1.65221 18.0821 1.64455 18.0024 1.67383 17.933L5.36943 9.08357C5.40456 8.99981 5.48652 8.94531 5.57704 8.94531C5.66757 8.94531 5.74998 8.99981 5.78466 9.08357L7.10375 12.2428C7.15148 12.3576 7.09744 12.4896 6.9826 12.5373C6.86776 12.5851 6.73581 12.531 6.68807 12.4162L5.57659 9.7546L2.21965 17.7948H4.52006C4.64436 17.7948 4.74524 17.8957 4.74524 18.0199C4.74524 18.1442 4.64436 18.2451 4.52006 18.2451Z" fill="#FF8C00"/>
<path d="M5.58072 12.0287C5.5492 12.0287 5.51812 12.0219 5.48885 12.0089L4.56292 11.595C4.44943 11.5441 4.39854 11.4112 4.44943 11.2973C4.50032 11.1838 4.63318 11.1329 4.74712 11.1838L5.58117 11.5567L6.41523 11.1838C6.52872 11.1329 6.66202 11.1838 6.71291 11.2973C6.7638 11.4108 6.71291 11.5441 6.59942 11.595L5.6735 12.0089C5.64422 12.0219 5.61315 12.0287 5.58162 12.0287H5.58072Z" fill="#FF8C00"/>
<path d="M18.0226 18.2474H15.3839C15.2596 18.2474 15.1588 18.1465 15.1588 18.0222C15.1588 17.8979 15.2596 17.7971 15.3839 17.7971H17.6844L14.8805 11.0827L13.769 13.7443C13.7208 13.8592 13.5893 13.9132 13.4744 13.8655C13.3596 13.8177 13.3056 13.6858 13.3533 13.5709L14.6724 10.4117C14.7075 10.3279 14.7895 10.2734 14.88 10.2734C14.9705 10.2734 15.0529 10.3279 15.0876 10.4117L18.2297 17.9358C18.2586 18.0051 18.2509 18.0848 18.2095 18.1474C18.1676 18.21 18.0973 18.2479 18.0221 18.2479L18.0226 18.2474Z" fill="#FF8C00"/>
<path d="M14.8795 12.9583C14.848 12.9583 14.8169 12.9515 14.7876 12.9384L14.0004 12.5867C13.8869 12.5358 13.836 12.403 13.8869 12.2895C13.9378 12.176 14.0711 12.1251 14.1842 12.176L14.8795 12.4867L15.5749 12.176C15.6883 12.1251 15.8217 12.176 15.8725 12.2895C15.9234 12.403 15.8725 12.5363 15.7591 12.5872L14.9718 12.9389C14.9426 12.952 14.911 12.9587 14.88 12.9587L14.8795 12.9583Z" fill="#FF8C00"/>
<path d="M5.33691 5.67337C4.47043 5.67337 3.76562 4.96857 3.76562 4.10254C3.76562 3.2365 4.47043 2.53125 5.33691 2.53125C6.20339 2.53125 6.9082 3.23605 6.9082 4.10254C6.9082 4.96902 6.20339 5.67337 5.33691 5.67337ZM5.33691 2.9816C4.71902 2.9816 4.21598 3.4842 4.21598 4.10254C4.21598 4.72087 4.71857 5.22302 5.33691 5.22302C5.95525 5.22302 6.45784 4.72042 6.45784 4.10254C6.45784 3.48465 5.95525 2.9816 5.33691 2.9816Z" fill="#FF8C00"/>
<path d="M5.34236 2.98466C5.21807 2.98466 5.11719 2.88378 5.11719 2.75948V1.89705C5.11719 1.77275 5.21807 1.67188 5.34236 1.67188C5.46666 1.67188 5.56754 1.77275 5.56754 1.89705V2.75948C5.56754 2.88378 5.46666 2.98466 5.34236 2.98466Z" fill="#FF8C00"/>
<path d="M5.34236 6.53935C5.21807 6.53935 5.11719 6.43847 5.11719 6.31417V5.45174C5.11719 5.32744 5.21807 5.22656 5.34236 5.22656C5.46666 5.22656 5.56754 5.32744 5.56754 5.45174V6.31417C5.56754 6.43847 5.46666 6.53935 5.34236 6.53935Z" fill="#FF8C00"/>
<path d="M7.54854 4.33317H6.68611C6.56182 4.33317 6.46094 4.23229 6.46094 4.10799C6.46094 3.98369 6.56182 3.88281 6.68611 3.88281H7.54854C7.67284 3.88281 7.77372 3.98369 7.77372 4.10799C7.77372 4.23229 7.67284 4.33317 7.54854 4.33317Z" fill="#FF8C00"/>
<path d="M3.99386 4.33317H3.13143C3.00713 4.33317 2.90625 4.23229 2.90625 4.10799C2.90625 3.98369 3.00713 3.88281 3.13143 3.88281H3.99386C4.11815 3.88281 4.21903 3.98369 4.21903 4.10799C4.21903 4.23229 4.11815 4.33317 3.99386 4.33317Z" fill="#FF8C00"/>
<path d="M6.28779 3.38011C6.23014 3.38011 6.1725 3.35804 6.12836 3.31436C6.04055 3.22654 6.04055 3.08378 6.12836 2.99596L6.73814 2.38618C6.82596 2.29836 6.96873 2.29836 7.05654 2.38618C7.14436 2.474 7.14436 2.61676 7.05654 2.70458L6.44676 3.31436C6.40263 3.35849 6.34498 3.38011 6.28734 3.38011H6.28779Z" fill="#FF8C00"/>
<path d="M3.77998 5.89573C3.72233 5.89573 3.66469 5.87367 3.62055 5.82998C3.53273 5.74216 3.53273 5.5994 3.62055 5.51158L4.23033 4.9018C4.31815 4.81398 4.46091 4.81398 4.54873 4.9018C4.63655 4.98962 4.63655 5.13238 4.54873 5.2202L3.93895 5.82998C3.89482 5.87412 3.83717 5.89573 3.77953 5.89573H3.77998Z" fill="#FF8C00"/>
<path d="M6.89757 5.89573C6.83992 5.89573 6.78228 5.87367 6.73814 5.82998L6.12836 5.2202C6.04055 5.13238 6.04055 4.98962 6.12836 4.9018C6.21618 4.81398 6.35895 4.81398 6.44676 4.9018L7.05654 5.51158C7.14436 5.5994 7.14436 5.74216 7.05654 5.82998C7.01241 5.87412 6.95476 5.89573 6.89712 5.89573H6.89757Z" fill="#FF8C00"/>
<path d="M4.38976 3.38011C4.33211 3.38011 4.27447 3.35804 4.23033 3.31436L3.62055 2.70458C3.53273 2.61676 3.53273 2.474 3.62055 2.38618C3.70837 2.29836 3.85113 2.29836 3.93895 2.38618L4.54873 2.99596C4.63655 3.08378 4.63655 3.22654 4.54873 3.31436C4.5046 3.35849 4.44695 3.38011 4.38931 3.38011H4.38976Z" fill="#FF8C00"/>
</g>
<defs>
<clipPath id="clip0_3278_2822">
<rect width="16.5938" height="16.5744" fill="white" transform="translate(1.65625 1.67188)"/>
</clipPath>
</defs>
</svg>
