<svg width="17" height="17" viewBox="0 0 17 17" fill="none" xmlns="http://www.w3.org/2000/svg">
<path fill-rule="evenodd" clip-rule="evenodd" d="M2.48438 13.2701H14.1V14.0998H2.48438V13.2701ZM12.8555 6.21779C13.0846 6.21779 13.2703 6.03206 13.2703 5.80295V4.55842C13.2702 4.38376 13.1608 4.22785 12.9965 4.16846L8.43323 2.50909C8.34209 2.47614 8.24229 2.47614 8.15114 2.50909L3.58786 4.16846C3.4236 4.22785 3.31414 4.38376 3.31406 4.55842V5.80295C3.31406 6.03206 3.49979 6.21779 3.72891 6.21779H4.14375V11.6108H3.31406V12.4404H13.2703V11.6108H12.4406V6.21779H12.8555ZM4.14375 4.84881L8.29219 3.33878L12.4406 4.84881V5.3881H4.14375V4.84881ZM9.12188 11.6108H7.4625V6.21779H9.12188V11.6108ZM4.97344 6.21779H6.63281V11.6108H4.97344V6.21779ZM11.6109 11.6108H9.95156V6.21779H11.6109V11.6108Z" fill="#FFAA00"/>
</svg>
