<svg width="20" height="20" viewBox="0 0 20 20" fill="none" xmlns="http://www.w3.org/2000/svg">
<g clip-path="url(#clip0_3278_10875)">
<path d="M17.0314 18.2463H2.87361C2.74932 18.2463 2.64844 18.1454 2.64844 18.0211V4.66268C2.64844 4.53838 2.74932 4.4375 2.87361 4.4375H7.16774C7.29204 4.4375 7.39292 4.53838 7.39292 4.66268C7.39292 4.78697 7.29204 4.88785 7.16774 4.88785H3.09879V17.7964H16.8062V4.88785H12.7373C12.613 4.88785 12.5121 4.78697 12.5121 4.66268C12.5121 4.53838 12.613 4.4375 12.7373 4.4375H17.0314C17.1557 4.4375 17.2566 4.53838 17.2566 4.66268V18.0215C17.2566 18.1458 17.1557 18.2467 17.0314 18.2467V18.2463Z" fill="#FF8C00"/>
<path d="M10.4544 6.66366H9.45145C9.32716 6.66366 9.22628 6.56278 9.22628 6.43848V5.39051H8.1783C8.054 5.39051 7.95312 5.28963 7.95312 5.16533V4.16239C7.95312 4.03809 8.054 3.93721 8.1783 3.93721H9.22628V2.88924C9.22628 2.76494 9.32716 2.66406 9.45145 2.66406H10.4544C10.5787 2.66406 10.6796 2.76494 10.6796 2.88924V3.93721H11.7275C11.8518 3.93721 11.9527 4.03809 11.9527 4.16239V5.16533C11.9527 5.28963 11.8518 5.39051 11.7275 5.39051H10.6796V6.43848C10.6796 6.56278 10.5787 6.66366 10.4544 6.66366ZM9.67663 6.2133H10.2292V5.16533C10.2292 5.04103 10.3301 4.94015 10.4544 4.94015H11.5024V4.38757H10.4544C10.3301 4.38757 10.2292 4.28669 10.2292 4.16239V3.11442H9.67663V4.16239C9.67663 4.28669 9.57575 4.38757 9.45145 4.38757H8.40348V4.94015H9.45145C9.57575 4.94015 9.67663 5.04103 9.67663 5.16533V6.2133Z" fill="#FF8C00"/>
<path d="M12.74 7.67613H7.17049C7.04619 7.67613 6.94531 7.57526 6.94531 7.45096V1.88143C6.94531 1.75713 7.04619 1.65625 7.17049 1.65625H12.74C12.8643 1.65625 12.9652 1.75713 12.9652 1.88143V7.45096C12.9652 7.57526 12.8643 7.67613 12.74 7.67613ZM7.39567 7.22578H12.5148V2.1066H7.39567V7.22578Z" fill="#FF8C00"/>
<path d="M11.7275 18.2467H8.1783C8.054 18.2467 7.95312 18.1458 7.95312 18.0215V14.8033C7.95312 14.679 8.054 14.5781 8.1783 14.5781H11.7275C11.8518 14.5781 11.9527 14.679 11.9527 14.8033V18.0215C11.9527 18.1458 11.8518 18.2467 11.7275 18.2467ZM8.40348 17.7964H11.5024V15.0285H8.40348V17.7964Z" fill="#FF8C00"/>
<path d="M6.51404 10.7532H4.97518C4.85088 10.7532 4.75 10.6523 4.75 10.528V8.95174C4.75 8.82744 4.85088 8.72656 4.97518 8.72656H6.51404C6.63834 8.72656 6.73921 8.82744 6.73921 8.95174V10.528C6.73921 10.6523 6.63834 10.7532 6.51404 10.7532ZM5.20035 10.3028H6.28886V9.17692H5.20035V10.3028Z" fill="#FF8C00"/>
<path d="M12.1234 10.7532H10.5846C10.4603 10.7532 10.3594 10.6523 10.3594 10.528V8.95174C10.3594 8.82744 10.4603 8.72656 10.5846 8.72656H12.1234C12.2477 8.72656 12.3486 8.82744 12.3486 8.95174V10.528C12.3486 10.6523 12.2477 10.7532 12.1234 10.7532ZM10.8102 10.3028H11.8987V9.17692H10.8102V10.3028Z" fill="#FF8C00"/>
<path d="M9.31872 10.7532H7.77986C7.65557 10.7532 7.55469 10.6523 7.55469 10.528V8.95174C7.55469 8.82744 7.65557 8.72656 7.77986 8.72656H9.31872C9.44302 8.72656 9.5439 8.82744 9.5439 8.95174V10.528C9.5439 10.6523 9.44302 10.7532 9.31872 10.7532ZM8.00504 10.3028H9.09355V9.17692H8.00504V10.3028Z" fill="#FF8C00"/>
<path d="M14.9281 10.7532H13.3892C13.2649 10.7532 13.1641 10.6523 13.1641 10.528V8.95174C13.1641 8.82744 13.2649 8.72656 13.3892 8.72656H14.9281C15.0524 8.72656 15.1533 8.82744 15.1533 8.95174V10.528C15.1533 10.6523 15.0524 10.7532 14.9281 10.7532ZM13.6144 10.3028H14.7029V9.17692H13.6144V10.3028Z" fill="#FF8C00"/>
<path d="M6.51404 13.4328H4.97518C4.85088 13.4328 4.75 13.332 4.75 13.2077V11.6314C4.75 11.5071 4.85088 11.4062 4.97518 11.4062H6.51404C6.63834 11.4062 6.73921 11.5071 6.73921 11.6314V13.2077C6.73921 13.332 6.63834 13.4328 6.51404 13.4328ZM5.20035 12.9825H6.28886V11.8566H5.20035V12.9825Z" fill="#FF8C00"/>
<path d="M12.1234 13.4328H10.5846C10.4603 13.4328 10.3594 13.332 10.3594 13.2077V11.6314C10.3594 11.5071 10.4603 11.4062 10.5846 11.4062H12.1234C12.2477 11.4062 12.3486 11.5071 12.3486 11.6314V13.2077C12.3486 13.332 12.2477 13.4328 12.1234 13.4328ZM10.8102 12.9825H11.8987V11.8566H10.8102V12.9825Z" fill="#FF8C00"/>
<path d="M9.31872 13.4328H7.77986C7.65557 13.4328 7.55469 13.332 7.55469 13.2077V11.6314C7.55469 11.5071 7.65557 11.4062 7.77986 11.4062H9.31872C9.44302 11.4062 9.5439 11.5071 9.5439 11.6314V13.2077C9.5439 13.332 9.44302 13.4328 9.31872 13.4328ZM8.00504 12.9825H9.09355V11.8566H8.00504V12.9825Z" fill="#FF8C00"/>
<path d="M14.9281 13.4328H13.3892C13.2649 13.4328 13.1641 13.332 13.1641 13.2077V11.6314C13.1641 11.5071 13.2649 11.4062 13.3892 11.4062H14.9281C15.0524 11.4062 15.1533 11.5071 15.1533 11.6314V13.2077C15.1533 13.332 15.0524 13.4328 14.9281 13.4328ZM13.6144 12.9825H14.7029V11.8566H13.6144V12.9825Z" fill="#FF8C00"/>
</g>
<defs>
<clipPath id="clip0_3278_10875">
<rect width="14.6081" height="16.5938" fill="white" transform="translate(2.64844 1.65625)"/>
</clipPath>
</defs>
</svg>
