<svg width="20" height="20" viewBox="0 0 20 20" fill="none" xmlns="http://www.w3.org/2000/svg">
<g clip-path="url(#clip0_3278_5926)">
<path d="M16.8743 13.3478H5.36595C5.25336 13.3478 5.15789 13.2645 5.14257 13.1524L3.99417 4.58348C3.98561 4.51908 4.00498 4.45422 4.04776 4.40514C4.09055 4.3565 4.15225 4.32812 4.2171 4.32812H18.0223C18.0871 4.32812 18.1488 4.35605 18.1916 4.40514C18.2344 4.45422 18.2537 4.51908 18.2452 4.58348L17.0968 13.1524C17.0819 13.2641 16.9864 13.3478 16.8734 13.3478H16.8743ZM5.56321 12.8975H16.6775L17.7656 4.77893H4.47515L5.56321 12.8975Z" fill="#FF8C00"/>
<path d="M4.21967 4.7754C4.11203 4.7754 4.01656 4.69794 3.99809 4.58806L3.57341 2.1066H1.88143C1.75713 2.1066 1.65625 2.00572 1.65625 1.88143C1.65625 1.75713 1.75713 1.65625 1.88143 1.65625H3.76301C3.87289 1.65625 3.96657 1.73551 3.98503 1.8436L4.44214 4.51195C4.46331 4.63444 4.38089 4.75108 4.2584 4.7718C4.24534 4.77405 4.23273 4.77495 4.22012 4.77495L4.21967 4.7754Z" fill="#FF8C00"/>
<path d="M7.78325 18.2462C6.79562 18.2462 5.99219 17.4427 5.99219 16.4551C5.99219 15.4675 6.79562 14.6641 7.78325 14.6641C8.77087 14.6641 9.57431 15.4675 9.57431 16.4551C9.57431 17.4427 8.77087 18.2462 7.78325 18.2462ZM7.78325 15.1149C7.04421 15.1149 6.44254 15.7161 6.44254 16.4556C6.44254 17.1951 7.04376 17.7963 7.78325 17.7963C8.52273 17.7963 9.12395 17.1951 9.12395 16.4556C9.12395 15.7161 8.52273 15.1149 7.78325 15.1149Z" fill="#FF8C00"/>
<path d="M14.4551 18.2462C13.4675 18.2462 12.6641 17.4427 12.6641 16.4551C12.6641 15.4675 13.4675 14.6641 14.4551 14.6641C15.4427 14.6641 16.2462 15.4675 16.2462 16.4551C16.2462 17.4427 15.4427 18.2462 14.4551 18.2462ZM14.4551 15.1149C13.7161 15.1149 13.1144 15.7161 13.1144 16.4556C13.1144 17.1951 13.7156 17.7963 14.4551 17.7963C15.1946 17.7963 15.7958 17.1951 15.7958 16.4556C15.7958 15.7161 15.1946 15.1149 14.4551 15.1149Z" fill="#FF8C00"/>
</g>
<defs>
<clipPath id="clip0_3278_5926">
<rect width="16.5938" height="16.5938" fill="white" transform="translate(1.65625 1.65625)"/>
</clipPath>
</defs>
</svg>
