<svg xmlns="http://www.w3.org/2000/svg" width="36" height="24" viewBox="0 0 36 24">
  <rect width="36" height="24" fill="#003399"/>
  <g fill="#FFCC00">
    <polygon points="18,3 18.5,4.5 20,4.5 18.75,5.5 19.25,7 18,6 16.75,7 17.25,5.5 16,4.5 17.5,4.5"/>
    <polygon points="18,17 18.5,18.5 20,18.5 18.75,19.5 19.25,21 18,20 16.75,21 17.25,19.5 16,18.5 17.5,18.5"/>
    <polygon points="10,12 10.5,13.5 12,13.5 10.75,14.5 11.25,16 10,15 8.75,16 9.25,14.5 8,13.5 9.5,13.5"/>
    <polygon points="26,12 26.5,13.5 28,13.5 26.75,14.5 27.25,16 26,15 24.75,16 25.25,14.5 24,13.5 25.5,13.5"/>
    <polygon points="11,7 11.5,8.5 13,8.5 11.75,9.5 12.25,11 11,10 9.75,11 10.25,9.5 9,8.5 10.5,8.5"/>
    <polygon points="25,7 25.5,8.5 27,8.5 25.75,9.5 26.25,11 25,10 23.75,11 24.25,9.5 23,8.5 24.5,8.5"/>
    <polygon points="11,17 11.5,18.5 13,18.5 11.75,19.5 12.25,21 11,20 9.75,21 10.25,19.5 9,18.5 10.5,18.5"/>
    <polygon points="25,17 25.5,18.5 27,18.5 25.75,19.5 26.25,21 25,20 23.75,21 24.25,19.5 23,18.5 24.5,18.5"/>
  </g>
</svg>
